<?xml version="1.0" encoding="UTF-8" standalone="no"?>
<svg width="143px" height="51px" viewBox="0 0 143 51" version="1.1" xmlns="http://www.w3.org/2000/svg" xmlns:xlink="http://www.w3.org/1999/xlink" style="background: #FAFAFA;">
    <!-- Generator: Sketch 3.8.3 (29802) - http://www.bohemiancoding.com/sketch -->
    <title>Pearson Logo</title>
    <desc>Created with Sketch.</desc>
    <defs></defs>
    <g id="ALL" stroke="none" stroke-width="1" fill="none" fill-rule="evenodd">
        <g id="Icons" transform="translate(-154.000000, -1087.000000)">
            <g id="PearsonLogo_Horizontal_Blk_RGB" transform="translate(159.000000, 1092.000000)">
                <path d="M78.9683743,26.8705187 C78.6527811,27.3169206 77.6227825,28.6498037 76.3414364,28.6498037 C74.6086794,28.6498037 74.2449958,27.4092664 74.2449958,26.3689393 C74.2449958,24.6578598 75.5293475,23.8665981 78.9683743,23.0004252 L78.9683743,26.8705187 L78.9683743,26.8705187 Z M83.2497345,28.9663084 C83.1997655,28.8335374 83.0645113,28.7580514 82.9315113,28.7900467 L82.8894322,28.8009673 C82.4943771,28.8883318 82.1904308,28.8638084 81.9774054,28.717243 C81.6755254,28.5084112 81.5284364,28.0382523 81.5284364,27.2799439 L81.5284364,20.4206822 C81.5284364,17.7415047 79.9619294,16.3831402 76.8719336,16.3831402 C74.1042938,16.3831402 71.9362811,17.7190888 71.9362811,19.4246121 C71.9362811,20.301514 72.4600155,20.9352897 73.2337825,21.0305093 C73.7392952,21.0925841 74.2213263,20.859229 74.5716723,20.4823738 C75.2520763,19.7499299 75.1637853,18.8793505 74.3389223,17.9442056 C74.8267768,17.4234673 75.6909011,17.1153925 76.6765664,17.1153925 C78.2828983,17.1153925 78.9683743,18.0869393 78.9683743,20.363972 L78.9683743,22.0972757 C78.5917288,22.2160607 78.2393164,22.3285234 77.5947924,22.4827523 C76.2942853,22.7940841 74.5100565,23.2084907 73.1642768,23.9669907 C72.0533136,24.5879299 71.4899421,25.5684813 71.4899421,26.8816308 C71.4899421,28.3106916 72.4096709,29.9796215 75.0020438,29.9796215 C76.4535847,29.9796215 77.7544675,29.2770654 79.0893517,27.770986 C79.2043178,29.3364579 79.7860989,29.9229112 81.1972514,29.9229112 C81.875589,29.9229112 82.4184845,29.7615935 83.0637599,29.4431729 C83.2386511,29.3569579 83.3218701,29.1500421 83.2497345,28.9663084 L83.2497345,28.9663084 Z" id="Fill-1" fill="#2C2C28"></path>
                <path d="M112.048367,17.0299439 C110.461196,17.0299439 108.639773,17.725986 108.639773,23.1531215 C108.639773,27.2923972 109.836773,29.304271 112.299339,29.304271 C114.656332,29.304271 115.70737,27.4071589 115.70737,23.1531215 C115.70737,19.0326215 114.510558,17.0299439 112.048367,17.0299439 L112.048367,17.0299439 Z M112.187379,30.0369065 C108.514662,30.0369065 105.744956,27.1019579 105.744956,23.2098318 C105.744956,19.3983645 108.635264,16.2976916 112.187379,16.2976916 C115.784578,16.2976916 118.602374,19.2836028 118.602374,23.096028 C118.602374,27.3830187 115.272678,30.0369065 112.187379,30.0369065 L112.187379,30.0369065 Z" id="Fill-2" fill="#2C2C28"></path>
                <path d="M48.6783757,27.2799439 L48.6783757,22.3177944 L50.551459,22.3177944 C53.3465254,22.3177944 55.4728347,21.7144813 56.8717768,20.5243318 C58.3336497,19.2803458 58.6404138,17.7041449 58.6404138,16.6011682 C58.6404138,12.0639626 54.3479703,11.1117664 50.7468263,11.1117664 L50.7614788,11.1113832 L43.4573743,11.1113832 C43.2920636,11.1113832 43.1575607,11.2485607 43.1575607,11.4171589 L43.1575607,11.4374673 L43.1573729,11.4309533 C43.1573729,11.586715 43.250548,11.7254252 43.3938799,11.7790701 C44.0444153,12.0229626 45.8115494,11.6796355 45.8115494,13.6125748 L45.8117373,27.2772617 C45.8117373,28.2712243 45.3794873,28.9724393 43.4038362,29.1626869 C43.2473545,29.178014 43.1290071,29.3088692 43.1290071,29.4669299 L43.1290071,29.5138692 C43.1290071,29.6824673 43.2635099,29.8196449 43.4288206,29.8196449 L51.2322387,29.8196449 C51.3973616,29.8196449 51.5320523,29.6824673 51.5320523,29.5138692 L51.5320523,29.4721028 C51.5320523,29.3140421 51.4091963,29.1803131 51.2527147,29.1678598 C49.1064929,28.9927477 48.6755579,28.3145234 48.6755579,27.2772617 L48.6755579,22.3264159 M55.4108432,16.5440748 C55.4108432,19.7010748 54.6479718,21.4403178 50.7468263,21.4403178 L48.6783757,21.4403178 L48.6783757,11.9011121 L50.8307966,11.9011121 C54.8666328,11.9011121 55.4108432,14.2480748 55.4108432,16.5440748" id="Fill-3" fill="#2C2C28"></path>
                <path d="M61.2697938,21.4500888 C61.5543912,18.6057617 62.6428121,17.0466121 64.3520876,17.0466121 C65.2077585,17.0466121 65.8417627,17.288014 66.2901681,17.7849953 C66.9063263,18.4676262 67.1666907,19.7005 67.0643107,21.4500888 L61.2697938,21.4500888 L61.2697938,21.4500888 Z M64.5468912,16.290986 C61.1501314,16.290986 58.3868121,19.4276776 58.3868121,23.2832103 C58.3868121,27.186257 60.9776822,30.0192804 64.5468912,30.0192804 C67.5463418,30.0192804 69.0055847,28.191715 69.8422825,26.8168738 C69.92475,26.6818037 69.8886822,26.5024766 69.7603785,26.4087897 L69.7209294,26.380243 C69.5914986,26.2861729 69.4113475,26.3124206 69.3115975,26.440785 C68.208524,27.8508785 67.2435226,28.6672383 65.5765141,28.6672383 C63.4680508,28.6672383 61.2155042,27.1856822 61.2155042,23.0276308 L61.2155042,22.996785 C61.211935,22.8130514 61.2162556,22.5613037 61.2228305,22.3264159 L69.8490452,22.3264159 C69.8727147,22.3264159 69.8920636,22.3076402 69.8937542,22.2838832 L69.8986384,22.2131869 C70.0203672,20.507472 69.5473531,18.9759112 68.5669477,17.8999486 C67.6073941,16.8473598 66.2170932,16.290986 64.5468912,16.290986 L64.5468912,16.290986 Z" id="Fill-4" fill="#2C2C28"></path>
                <path d="M100.301537,21.6039346 C100.300785,21.6035514 100.299846,21.6035514 100.298907,21.6033598 C97.9398475,20.9285841 97.0206822,20.2453785 97.0206822,19.1671168 C97.0206822,17.9382664 97.9770424,17.0466121 99.2944562,17.0466121 C100.844432,17.0466121 101.508117,17.8020467 103.14413,20.591771 L103.165921,20.6289393 C103.173811,20.6429252 103.188651,20.6517383 103.204431,20.6517383 L103.428915,20.6517383 C103.594038,20.6517383 103.728729,20.5143692 103.728729,20.3459626 L103.728729,16.3369673 C103.728729,16.311486 103.708441,16.290986 103.683644,16.290986 L103.387588,16.290986 C103.297418,16.290986 103.212884,16.3317944 103.155965,16.4028738 L102.633733,17.0510187 C101.974369,16.6802944 100.900976,16.290986 99.8236384,16.290986 C97.1144209,16.290986 95.2219887,17.9988084 95.2219887,20.4442477 C95.2219887,22.7392897 96.7141059,23.5995234 99.2906992,24.3091682 C101.794218,25.0080841 102.681448,25.7351636 102.681448,27.0866308 C102.681448,28.5881121 101.254328,29.2636542 100.241048,29.2636542 C98.3563178,29.2636542 97.5592571,28.549028 95.7530494,25.2391402 L95.7316342,25.1996729 C95.7237444,25.1851121 95.7087161,25.1759159 95.6923729,25.1759159 L95.4663856,25.1759159 C95.3010749,25.1759159 95.166572,25.3130935 95.166572,25.4816916 L95.166572,29.9732991 C95.166572,29.9985888 95.1866723,30.0192804 95.2114689,30.0192804 L95.5180452,30.0192804 C95.5971314,30.0192804 95.674339,29.9863271 95.7301314,29.9298084 L96.5559336,29.0872009 C97.5226257,29.6991355 98.9679675,30.0192804 99.9070452,30.0192804 C101.316319,30.0192804 102.474997,29.5640654 103.257969,28.7024907 C103.956031,27.9347944 104.340566,26.8467617 104.340566,25.6387944 C104.340566,23.547028 103.245758,22.4532477 100.301537,21.6039346" id="Fill-5" fill="#2C2C28"></path>
                <path d="M86.0265791,28.2070421 C86.0265791,28.8996355 85.8539421,29.126285 84.773411,29.1958318 C84.6165537,29.205986 84.4935099,29.3395234 84.4935099,29.5004579 C84.4935099,29.6686729 84.627637,29.8056589 84.7927599,29.8056589 L90.1311695,29.8056589 C90.2934746,29.8056589 90.4257232,29.6707804 90.4257232,29.5054393 C90.4257232,29.3422056 90.3009887,29.208285 90.1416893,29.2002383 C88.9059915,29.1396963 88.5862655,28.9356542 88.5862655,28.2068505 L88.5862655,20.2233458 C89.4646667,18.7331682 90.0966045,17.9532103 91.1624831,17.7173645 C91.1108234,17.9056963 91.0770099,18.1315794 91.0770099,18.3147383 C91.0770099,19.2845607 91.7414463,19.9616355 92.6923588,19.9616355 C93.6265523,19.9616355 94.279154,19.2845607 94.279154,18.3147383 C94.279154,17.3972196 93.7174732,16.3260467 92.1342472,16.3260467 C90.8361822,16.3260467 89.5956003,17.0849299 88.530661,18.9008084 L88.530661,16.8471682 C88.530661,16.6379533 88.3614054,16.4697383 88.1562698,16.4751028 L84.792572,16.5666822 C84.6297034,16.571472 84.5021511,16.7050093 84.5021511,16.8711168 L84.5021511,16.9155654 C84.5021511,17.0659626 84.6096031,17.1950935 84.7516201,17.2154019 C85.8729153,17.3776776 86.0275184,17.9217897 86.0267669,18.4852523 L86.0265791,28.2070421" id="Fill-6" fill="#2C2C28"></path>
                <path d="M122.946102,16.4660981 C123.023873,16.4660981 123.097511,16.4965607 123.153679,16.5519299 C123.21229,16.6095981 123.244788,16.6871916 123.245352,16.7699579 L123.257374,19.0473738 C123.257374,19.0473738 124.352746,16.376243 127.908617,16.376243 L127.939801,16.376243 C130.15628,16.376243 131.427482,17.817757 131.427482,20.3306355 L131.427482,28.1938224 C131.427482,28.8867991 131.600119,29.1134486 132.680274,29.1826121 C132.837319,29.1925748 132.960551,29.3261121 132.960551,29.4872383 C132.960551,29.6552617 132.826236,29.7922477 132.661301,29.7922477 L127.865599,29.7922477 C127.700288,29.7922477 127.565785,29.6548785 127.565785,29.486472 C127.565785,29.3232383 127.686011,29.1898925 127.839299,29.1764813 C128.710374,29.1006121 128.849573,28.8760701 128.849573,28.1938224 L128.849573,21.0973738 C128.849573,18.754243 128.196408,17.8417056 126.520007,17.8417056 C125.387441,17.8417056 124.459446,18.8504206 123.880671,19.6964766 C123.880671,19.6964766 123.585178,20.0746729 123.264513,20.7856589 L123.300017,28.1934393 C123.300017,28.8745374 123.435459,29.0988879 124.281925,29.1755234 C124.43465,29.1893178 124.5545,29.3226636 124.5545,29.4791916 C124.5545,29.6548785 124.419997,29.7922477 124.255062,29.7922477 L119.488853,29.7922477 C119.323918,29.7922477 119.189603,29.6552617 119.189603,29.4870467 C119.189603,29.3261121 119.312647,29.1925748 119.469504,29.1824206 C120.550035,29.1128738 120.722672,28.8862243 120.722672,28.1938224 L120.722672,18.4871682 C120.722672,17.9206402 120.567318,17.3736542 119.440199,17.2106121 C119.297619,17.1899206 119.189603,17.0604065 119.189603,16.909243 L119.189603,16.8644112 C119.189603,16.697729 119.318095,16.5634252 119.481527,16.5586355 L122.946102,16.4660981" id="Fill-7" fill="#2C2C28"></path>
                <path d="M28.6727712,2.80102804 C37.1257853,7.71259813 39.0933588,18.7270374 33.2120537,29.8700327 C28.0430876,39.6655841 16.7564972,43.8491168 8.34668927,38.8620607 C-0.0649971751,33.8742383 -1.70645763,19.9601028 1.90821186,11.9528411 C7.15682768,0.326084112 19.3332782,-2.62725701 28.6727712,2.80102804" id="Fill-8" fill="#007E98"></path>
                <path d="M17.7908164,31.8232804 C17.5334576,31.6186636 17.2441638,31.478229 16.9529915,31.4186449 C16.8538051,31.3991028 16.7519887,31.3879907 16.6514873,31.3879907 C16.1016412,31.3879907 15.5626907,31.6966402 15.2100904,32.2150794 C14.9155367,32.6455794 14.7951229,33.1599953 14.8732698,33.6594673 C14.9226751,33.9771215 15.0397076,34.2533925 15.2121568,34.4593505 C15.4058333,34.6921308 15.7022655,34.8699252 16.0695184,34.9766402 C16.2819802,35.0367991 16.5000777,35.0686028 16.7176116,35.0686028 L16.7181751,35.0686028 C17.1925042,35.0686028 17.6193065,34.9235701 17.9508672,34.6490234 C18.3365297,34.3288785 18.5465494,33.8719393 18.5418531,33.363271 C18.5375325,32.769729 18.2566921,32.1932383 17.7908164,31.8232804 M28.4766525,11.2518178 C30.1312627,13.0535187 30.6465438,15.7876822 30.3587528,18.0298458 C30.0300099,20.5867897 28.510654,22.9527196 25.9830904,24.5214486 C23.9785099,25.7654346 21.3453729,26.2618411 18.754315,26.2854065 C18.7336511,26.7044112 18.6515593,28.1476495 18.6102316,28.3760234 C18.5493672,28.7126449 18.4338376,28.894271 18.2923842,29.0827944 C18.0141737,29.4525607 17.5313912,29.691472 17.0519901,29.830757 C16.6708362,29.9413037 16.2940028,29.9888178 16.0266879,29.9888178 C15.9814153,29.9888178 15.9372698,29.9863271 15.8940636,29.980771 C15.6122839,29.9482009 15.2995085,29.8131308 15.1060198,29.5929953 C14.9129068,29.3728598 14.8033884,29.0944813 14.7778404,28.7791262 L14.7562373,28.4942336 C14.7013842,28.2488084 14.4011949,15.8244673 14.4594294,16.0455607 C14.5028234,14.5569159 16.8594407,14.2971215 18.1381568,14.5599813 C19.4195028,14.8234159 19.0950805,16.4113037 19.0605155,18.3630187 C19.0605155,18.3630187 18.9996511,20.9297336 18.8814915,23.6418645 C20.5126201,23.5767243 21.8086186,23.1025421 23.0215862,22.4879252 C25.4711907,21.2494953 26.7677528,19.3498925 26.7677528,16.5519299 C26.7677528,13.7539673 24.0968573,10.6205327 19.1700339,10.6205327 C14.2433983,10.6205327 12.128548,11.8878925 9.74300141,13.9009159 C9.20517797,14.3545981 8.79096186,14.8119206 8.39910028,15.1129065 C8.00742655,15.4140841 6.96709605,15.4600654 6.68813418,14.7555935 C6.35206497,13.9062804 6.98005791,12.9594486 7.34900141,12.5013598 C7.9283404,11.7821355 9.35752684,10.3335327 10.9413164,9.49188318 C12.7554138,8.52608411 14.9748983,7.4859486 18.0647062,7.40643925 C20.8601483,7.33440187 25.2737571,7.56526636 28.4529831,11.2276776" id="Fill-9" fill="#FFFFFF"></path>
            </g>
        </g>
    </g>
</svg>
